<?xml version="1.0" encoding="UTF-8" standalone="no"?>
<!-- Created with Inkscape (http://www.inkscape.org/) -->

<svg
   width="250.00002mm"
   height="250.00002mm"
   viewBox="0 0 250.00002 250.00002"
   version="1.1"
   id="svg5"
   inkscape:version="1.1.2 (b8e25be833, 2022-02-05)"
   sodipodi:docname="EO2Phoenix_logo.svg"
   xmlns:inkscape="http://www.inkscape.org/namespaces/inkscape"
   xmlns:sodipodi="http://sodipodi.sourceforge.net/DTD/sodipodi-0.dtd"
   xmlns="http://www.w3.org/2000/svg"
   xmlns:svg="http://www.w3.org/2000/svg">
  <sodipodi:namedview
     id="namedview7"
     pagecolor="#ffffff"
     bordercolor="#666666"
     borderopacity="1.0"
     inkscape:pageshadow="2"
     inkscape:pageopacity="0.0"
     inkscape:pagecheckerboard="0"
     inkscape:document-units="mm"
     showgrid="false"
     inkscape:zoom="0.70710678"
     inkscape:cx="8.4852814"
     inkscape:cy="333.7544"
     inkscape:window-width="2560"
     inkscape:window-height="1369"
     inkscape:window-x="-8"
     inkscape:window-y="-8"
     inkscape:window-maximized="1"
     inkscape:current-layer="layer1"
     showguides="true"
     inkscape:guide-bbox="true"
     inkscape:snap-bbox="true"
     inkscape:snap-bbox-edge-midpoints="true"
     inkscape:snap-bbox-midpoints="true"
     inkscape:snap-global="true"
     inkscape:bbox-nodes="true"
     inkscape:snap-intersection-paths="true"
     inkscape:bbox-paths="true"
     fit-margin-top="0"
     fit-margin-left="0"
     fit-margin-right="0"
     fit-margin-bottom="0" />
  <defs
     id="defs2">
    <linearGradient
       id="linearGradient16293-1"
       inkscape:swatch="gradient">
      <stop
         style="stop-color:#000000;stop-opacity:1;"
         offset="0"
         id="stop16289" />
      <stop
         style="stop-color:#000000;stop-opacity:1"
         offset="0.49999973"
         id="stop18223" />
      <stop
         style="stop-color:#000000;stop-opacity:0;"
         offset="1"
         id="stop16291" />
    </linearGradient>
  </defs>
  <g
     inkscape:label="Layer 1"
     inkscape:groupmode="layer"
     id="layer1"
     transform="translate(13.657005,-17.671355)">
    <g
       id="g28173"
       transform="matrix(11.111111,0,0,11.111111,-1071.7522,-1471.6668)"
       inkscape:export-filename="C:\Users\morgs\OneDrive\Code\EO2_Phoenix_logo.png"
       inkscape:export-xdpi="151.82576"
       inkscape:export-ydpi="151.82576">
      <rect
         style="fill:#000000;stroke:#000000;stroke-width:0;stroke-linecap:square;stroke-linejoin:round;stroke-miterlimit:4;stroke-dasharray:none;stroke-dashoffset:1.7121"
         id="rect27867"
         width="22.5"
         height="22.5"
         x="95.228569"
         y="134.04044" />
      <g
         id="g28159"
         transform="translate(-1.4767028,-0.61079936)">
        <text
           xml:space="preserve"
           style="font-style:normal;font-variant:normal;font-weight:bold;font-stretch:normal;font-size:9.3844px;line-height:1.25;font-family:Consolas;-inkscape-font-specification:'Consolas, Bold';font-variant-ligatures:normal;font-variant-caps:normal;font-variant-numeric:normal;font-variant-east-asian:normal;letter-spacing:0px;fill:#ffffff;stroke:none;stroke-width:0.108766;stroke-miterlimit:4;stroke-dasharray:none"
           x="95.051399"
           y="148.67857"
           id="text947"
           transform="scale(1.0238538,0.97670194)"
           inkscape:export-filename="C:\Users\morgs\OneDrive\Code\EO2_Phoenix_logo.png"
           inkscape:export-xdpi="47.995399"
           inkscape:export-ydpi="47.995399"><tspan
             sodipodi:role="line"
             id="tspan945"
             style="font-style:normal;font-variant:normal;font-weight:bold;font-stretch:normal;font-size:9.3844px;font-family:Consolas;-inkscape-font-specification:'Consolas, Bold';font-variant-ligatures:normal;font-variant-caps:normal;font-variant-numeric:normal;font-variant-east-asian:normal;fill:#ffffff;stroke:none;stroke-width:0.108766;stroke-miterlimit:4;stroke-dasharray:none"
             x="95.051399"
             y="148.67857">EO2</tspan></text>
        <g
           aria-label="Phoenix"
           transform="matrix(0.65299369,0,0,1.1537852,35.563451,-24.173477)"
           id="text17457"
           style="font-weight:bold;font-size:7.94408px;font-family:Consolas;-inkscape-font-specification:'Consolas, Bold';letter-spacing:0px;fill:#e6e6e6;stroke-width:0.0920727"
           inkscape:export-filename="C:\Users\morgs\OneDrive\Code\EO2_Phoenix_logo.png"
           inkscape:export-xdpi="47.995399"
           inkscape:export-ydpi="47.995399">
          <path
             d="m 99.412733,149.61063 q 0,0.39565 -0.131884,0.73312 -0.131884,0.33359 -0.391773,0.57797 -0.259889,0.24437 -0.647784,0.38013 -0.387895,0.13577 -0.899915,0.13577 h -0.484868 v 1.62915 H 95.89453 v -5.06978 h 1.485636 q 0.492626,0 0.868884,0.10861 0.380137,0.10473 0.636147,0.31032 0.259889,0.20558 0.391773,0.50814 0.135763,0.29868 0.135763,0.68657 z m -1.000767,0.0659 q 0,-0.2017 -0.06594,-0.36462 -0.06206,-0.16679 -0.193948,-0.28316 -0.128005,-0.11637 -0.325831,-0.17843 -0.197826,-0.0621 -0.469353,-0.0621 h -0.500383 v 1.85801 h 0.531415 q 0.248253,0 0.438321,-0.0659 0.190068,-0.0698 0.318073,-0.19783 0.131884,-0.128 0.197827,-0.30643 0.06982,-0.17844 0.06982,-0.39954 z"
             id="path21641"
             style="fill:#e6e6e6" />
          <path
             d="m 102.62838,153.06677 v -2.06097 c 0,-0.3466 -0.16033,-0.5199 -0.48099,-0.5199 -0.16033,0 -0.31419,0.052 -0.46159,0.15566 -0.14482,0.10377 -0.29869,0.24491 -0.4616,0.4234 v 2.00181 h -0.94646 v -5.08052 h 0.94646 v 1.76492 l -0.0465,0.57284 c 0.0802,-0.0768 0.16163,-0.14529 0.24438,-0.20548 0.0828,-0.0623 0.17196,-0.11415 0.26764,-0.15566 0.0957,-0.0415 0.19913,-0.0726 0.31032,-0.0934 0.11119,-0.0229 0.23403,-0.0343 0.3685,-0.0343 0.20171,0 0.37755,0.027 0.52754,0.0809 0.14999,0.052 0.2754,0.12662 0.37625,0.22415 0.10085,0.0954 0.17585,0.21171 0.22498,0.34869 0.0517,0.13491 0.0776,0.28641 0.0776,0.45453 v 2.12323 z"
             id="path21643"
             sodipodi:nodetypes="csscccccccccscscccscc"
             style="fill:#e6e6e6;stroke-width:0.0824861" />
          <path
             d="m 108.19467,151.47081 q 0,0.37518 -0.13189,0.68782 -0.13188,0.30953 -0.38014,0.53152 -0.24825,0.22197 -0.60899,0.34391 -0.36074,0.12193 -0.82234,0.12193 -0.43832,0 -0.78354,-0.10318 -0.34523,-0.10317 -0.58572,-0.30639 -0.2405,-0.20635 -0.3685,-0.51275 -0.12801,-0.30952 -0.12801,-0.71909 0,-0.3783 0.13189,-0.68783 0.13576,-0.30952 0.38401,-0.52838 0.25213,-0.21885 0.61287,-0.33765 0.36075,-0.12194 0.81458,-0.12194 0.4422,0 0.78743,0.1063 0.34523,0.10318 0.58572,0.30953 0.24049,0.20635 0.36462,0.51274 0.12801,0.30327 0.12801,0.70346 z m -0.98526,0.0188 q 0,-0.49398 -0.23273,-0.74098 -0.22886,-0.25012 -0.67882,-0.25012 -0.24825,0 -0.4228,0.0782 -0.17456,0.0782 -0.28705,0.21573 -0.11248,0.13443 -0.16679,0.31577 -0.0504,0.18134 -0.0504,0.38768 0,0.49711 0.24826,0.75036 0.24825,0.25012 0.67881,0.25012 0.23662,0 0.41117,-0.075 0.17455,-0.0782 0.28316,-0.2126 0.10861,-0.13757 0.16292,-0.32203 0.0543,-0.18447 0.0543,-0.39707 z"
             id="path21645"
             style="fill:#e6e6e6;stroke-width:0.0826614" />
          <path
             d="m 112.44599,151.25196 q 0,0.0782 -0.008,0.20322 -0.004,0.12506 -0.0155,0.23448 h -2.59114 q 0,0.20948 0.0776,0.36893 0.0815,0.15945 0.22498,0.26888 0.1474,0.1063 0.3491,0.16257 0.20559,0.0563 0.45384,0.0563 0.28704,0 0.61287,-0.0344 0.32971,-0.0375 0.6827,-0.11881 v 0.60653 q -0.15128,0.0344 -0.32971,0.0626 -0.17843,0.0281 -0.36462,0.05 -0.18619,0.0219 -0.37626,0.0313 -0.19007,0.0125 -0.3685,0.0125 -0.44996,0 -0.80682,-0.10318 -0.35686,-0.10317 -0.60512,-0.30326 -0.24825,-0.20323 -0.38013,-0.50024 -0.13189,-0.29702 -0.13189,-0.68782 0,-0.38769 0.13189,-0.70347 0.13188,-0.3189 0.37237,-0.544 0.2405,-0.22824 0.58185,-0.35017 0.34522,-0.12506 0.76803,-0.12506 0.41892,0 0.74088,0.1063 0.32195,0.10318 0.53917,0.29076 0.21722,0.18759 0.32971,0.44709 0.11249,0.2595 0.11249,0.56902 z m -0.96198,-0.10943 q 0.004,-0.18759 -0.0582,-0.32515 -0.0621,-0.1407 -0.17068,-0.23136 -0.10473,-0.0907 -0.24825,-0.13444 -0.13964,-0.0438 -0.30256,-0.0438 -0.35686,0 -0.58572,0.19384 -0.22886,0.19072 -0.27152,0.54088 z"
             id="path21647"
             style="fill:#e6e6e6;stroke-width:0.0826613" />
          <path
             d="m 115.73146,153.06678 v -2.10328 q 0,-0.53058 -0.48099,-0.53058 -0.2405,0 -0.4616,0.15885 -0.21722,0.15886 -0.46159,0.4321 v 2.04291 h -0.94646 v -3.228 h 0.81845 l 0.0233,0.47659 q 0.12024,-0.12392 0.24825,-0.22559 0.13188,-0.10165 0.28316,-0.17156 0.15128,-0.073 0.32583,-0.11121 0.17456,-0.0381 0.39178,-0.0381 0.30255,0 0.52753,0.0827 0.22498,0.0795 0.37626,0.22875 0.15128,0.14616 0.22498,0.35585 0.0776,0.20651 0.0776,0.46386 v 2.16682 z"
             id="path21649"
             style="fill:#e6e6e6;stroke-width:0.0833285" />
          <path
             d="m 120.06812,148.95554 q 0,0.10484 -0.0465,0.19698 -0.0465,0.0921 -0.13188,0.16204 -0.0815,0.0668 -0.19395,0.10802 -0.11249,0.0382 -0.24437,0.0382 -0.13189,0 -0.24826,-0.0382 -0.11249,-0.0413 -0.19782,-0.10802 -0.0815,-0.0699 -0.12801,-0.16204 -0.0465,-0.0921 -0.0465,-0.19698 0,-0.10485 0.0465,-0.19699 0.0465,-0.0921 0.12801,-0.16203 0.0853,-0.0699 0.19782,-0.10802 0.11637,-0.0413 0.24826,-0.0413 0.13188,0 0.24437,0.0413 0.11249,0.0381 0.19395,0.10802 0.0853,0.0699 0.13188,0.16203 0.0465,0.0921 0.0465,0.19699 z m -1.04732,1.4869 h -1.11325 v -0.60366 h 2.08299 v 2.62433 h 1.13653 v 0.60366 h -3.35529 v -0.60366 h 1.24902 z"
             id="path21651"
             style="fill:#e6e6e6;stroke-width:0.0833284" />
          <path
             d="m 124.65303,153.06677 -0.89992,-1.08659 -0.90379,1.08659 h -1.14429 l 1.47788,-1.6267 -1.4003,-1.60129 h 1.15205 l 0.8844,1.06117 0.87276,-1.06117 h 1.06283 l -1.35763,1.59493 1.43133,1.63306 z"
             id="path21653"
             style="fill:#e6e6e6;stroke-width:0.0833284" />
        </g>
      </g>
    </g>
  </g>
</svg>
